# File created by Blade
# Date/Time:  Tue Sep 30 19:35:54 2014
#---------------------------------------------------------
:version 1.10
:name HOM
:units
  mass 1.0
  length 1.000000
  angle deg
:documentation
     Acclaim Skeleton File
:root
   axis xyz
   order TX TY TZ RX RY RZ
   position 0.000000 0.000000 0.000000
   orientation 0 0 0
:bonedata
   begin
      id 1
      name Spine_dum
      direction 0.000000 1.000000 0.000000
      length 3.241213
      axis 0.0 0.0 0.0 xyz
   end
   begin
      id 2
      name LeftUpLeg_dum
      direction 1.000000 0.000000 0.000000
      length 3.434019
      axis 0.0 0.0 0.0 xyz
   end
   begin
      id 3
      name RightUpLeg_dum
      direction -1.000000 0.000000 0.000000
      length 3.434019
      axis 0.0 0.0 0.0 xyz
   end
   begin
      id 4
      name Spine
      direction 0.000000 1.000000 0.000000
      length 0.000000
      axis 0.0 0.0 0.0 xyz
      dof rx ry rz
   end
   begin
      id 5
      name Spine_dum1
      direction 0.000000 1.000000 0.000000
      length 18.382958
      axis 0.0 0.0 0.0 xyz
   end
   begin
      id 6
      name Spine_dum2
      direction 0.000000 1.000000 0.000000
      length 12.828261
      axis 0.0 0.0 0.0 xyz
   end
   begin
      id 7
      name Spine_dum3
      direction 0.000000 1.000000 0.000000
      length 12.828261
      axis 0.0 0.0 0.0 xyz
   end
   begin
      id 8
      name Head
      direction 0.000000 1.000000 0.000000
      length 4.527550
      axis 0.0 0.0 0.0 xyz
      dof rx ry rz
   end
   begin
      id 9
      name LeftShoulder
      direction 1.000000 0.000000 0.000000
      length 7.748055
      axis 0.0 0.0 -90.0 xyz
      dof rx ry rz
   end
   begin
      id 10
      name LeftArm
      direction 1.000000 0.000000 0.000000
      length 10.635614
      axis 0.0 0.0 -90.0 xyz
      dof rx ry rz
   end
   begin
      id 11
      name LeftForeArm
      direction 1.000000 0.000000 0.000000
      length 8.346755
      axis 0.0 0.0 -90.0 xyz
      dof ry rz rx
   end
   begin
      id 12
      name LeftHand
      direction 0.000000 0.000000 0.000000
      length 0.000000
      axis 0.0 0.0 -90.0 xyz
      dof rx ry rz
   end
   begin
      id 13
      name LeftHand_dum1
      direction 0.000000 0.000000 0.000000
      length 0.000000
      axis 0.0 0.0 -90.0 xyz
   end
   begin
      id 14
      name LeftHand_dum2
      direction 1.000000 0.000000 0.000000
      length 3.937000
      axis 0.0 0.0 -90.0 xyz
   end
   begin
      id 15
      name LeftHandThumb1
      direction 0.000000 0.000000 1.000000
      length 3.937000
      axis 0.0 0.0 -90.0 xyz
      dof rx rz ry
   end
   begin
      id 16
      name RightShoulder
      direction -1.000000 0.000000 0.000000
      length 7.748055
      axis 0.0 0.0 90.0 xyz
      dof rx ry rz
   end
   begin
      id 17
      name RightArm
      direction -1.000000 0.000000 0.000000
      length 10.635614
      axis 0.0 0.0 90.0 xyz
      dof rx ry rz
   end
   begin
      id 18
      name RightForeArm
      direction -1.000000 0.000000 0.000000
      length 8.346755
      axis 0.0 0.0 90.0 xyz
      dof ry rz rx
   end
   begin
      id 19
      name RightHand
      direction 0.000000 0.000000 0.000000
      length 0.000000
      axis 0.0 0.0 90.0 xyz
      dof rx ry rz
   end
   begin
      id 20
      name RightHand_dum1
      direction 0.000000 0.000000 0.000000
      length 0.000000
      axis 0.0 0.0 90.0 xyz
   end
   begin
      id 21
      name RightHand_dum2
      direction -1.000000 0.000000 0.000000
      length 3.937000
      axis 0.0 0.0 90.0 xyz
   end
   begin
      id 22
      name RightHandThumb1
      direction 0.000000 0.000000 1.000000
      length 3.937000
      axis 0.0 0.0 90.0 xyz
      dof rx rz ry
   end
   begin
      id 23
      name LeftUpLeg
      direction 0.000000 -1.000000 0.000000
      length 15.713025
      axis 0.0 0.0 0.0 xyz
      dof rx ry rz
   end
   begin
      id 24
      name LeftLeg
      direction 0.000000 -1.000000 0.000000
      length 14.435119
      axis 0.0 0.0 0.0 xyz
      dof rx ry rz
   end
   begin
      id 25
      name LeftFoot
      direction 0.000000 -0.258819 0.965926
      length 4.938895
      axis 15.0 0.0 0.0 xyz
      dof rx ry rz
   end
   begin
      id 26
      name LeftToeBase
      direction 0.000000 0.000000 1.000000
      length 2.952750
      axis 0.0 0.0 0.0 xyz
      dof rx ry rz
   end
   begin
      id 27
      name RightUpLeg
      direction 0.000000 -1.000000 0.000000
      length 15.713025
      axis 0.0 0.0 0.0 xyz
      dof rx ry rz
   end
   begin
      id 28
      name RightLeg
      direction 0.000000 -1.000000 0.000000
      length 14.435119
      axis 0.0 0.0 0.0 xyz
      dof rx ry rz
   end
   begin
      id 29
      name RightFoot
      direction 0.000000 -0.258819 0.965926
      length 4.938895
      axis 15.0 0.0 0.0 xyz
      dof rx ry rz
   end
   begin
      id 30
      name RightToeBase
      direction 0.000000 0.000000 1.000000
      length 2.952750
      axis 0.0 0.0 0.0 xyz
      dof rx ry rz
   end
:hierarchy
   begin
      root Spine_dum LeftUpLeg_dum RightUpLeg_dum
      Spine_dum Spine
      LeftUpLeg_dum LeftUpLeg
      RightUpLeg_dum RightUpLeg
      Spine Spine_dum1 Spine_dum2 Spine_dum3
      Spine_dum1 Head
      Spine_dum2 LeftShoulder
      Spine_dum3 RightShoulder
      LeftShoulder LeftArm
      LeftArm LeftForeArm
      LeftForeArm LeftHand
      LeftHand LeftHand_dum1 LeftHand_dum2
      LeftHand_dum1 LeftHandThumb1
      RightShoulder RightArm
      RightArm RightForeArm
      RightForeArm RightHand
      RightHand RightHand_dum1 RightHand_dum2
      RightHand_dum1 RightHandThumb1
      LeftUpLeg LeftLeg
      LeftLeg LeftFoot
      LeftFoot LeftToeBase
      RightUpLeg RightLeg
      RightLeg RightFoot
      RightFoot RightToeBase
   end

# File created by Blade
# Date/Time:  Tue Sep 23 19:15:59 2014
# Frame Rate: 120.000 fps
#------------------------------------------------------
:FULLY-SPECIFIED
:DEGREES
1311
root 2.062645 32.712783 -5.038578 48.396852 -41.572510 -29.531710
Spine -36.112599 -12.491426 27.713606
Head 11.508616 -3.843065 6.872548
LeftShoulder 8.930174 39.976418 29.648699
LeftArm 88.216406 23.198048 -42.372984
LeftForeArm 17.587269 -0.000000 54.713538
LeftHand 39.526398 -0.000000 11.013266
LeftHandThumb1 -26.253704 0.000000 33.147579
RightShoulder -7.015981 -48.161587 -15.751637
RightArm 60.180204 -3.060820 78.200259
RightForeArm 26.753826 -0.000000 84.931614
RightHand 6.869475 -0.000000 12.310046
RightHandThumb1 -24.326973 -0.000000 -32.862282
LeftUpLeg -37.165313 10.064546 9.788550
LeftLeg 25.385525 -0.000000 -0.000000
LeftFoot -15.349804 18.350692 10.235762
LeftToeBase 1.941085 -0.000000 -0.000000
RightUpLeg -168.133996 -22.969590 30.153315
RightLeg 125.217937 -0.000000 -0.000000
RightFoot 36.512451 -24.997033 12.826023
RightToeBase 43.234739 -0.000000 -0.000000
1312
root 2.039007 32.717809 -5.037703 48.440783 -41.595072 -29.696829
Spine -36.141153 -12.572525 27.797815
Head 11.797569 -4.012534 7.002603
LeftShoulder 8.862506 40.088217 29.719552
LeftArm 87.975970 23.334750 -42.430494
LeftForeArm 19.329629 0.000000 55.139966
LeftHand 38.346067 0.000000 11.976001
LeftHandThumb1 -26.253704 0.000000 33.147579
RightShoulder -6.912113 -48.095728 -15.904042
RightArm 60.140707 -3.160676 78.246449
RightForeArm 26.743852 0.000000 85.091442
RightHand 6.809482 -0.000000 12.310194
RightHandThumb1 -24.326973 -0.000000 -32.862282
LeftUpLeg -37.099772 10.299740 9.866118
LeftLeg 25.515434 -0.000000 -0.000000
LeftFoot -15.628281 18.064232 9.573783
LeftToeBase 2.015351 -0.000000 -0.000000
RightUpLeg -168.257636 -22.903621 30.150645
RightLeg 125.216285 -0.000000 -0.000000
RightFoot 36.474984 -25.074402 12.969272
RightToeBase 43.428971 -0.000000 -0.000000
1313
root 2.012587 32.723609 -5.035945 48.517964 -41.594830 -29.892034
Spine -36.197605 -12.628815 27.914894
Head 12.085668 -4.165136 7.092280
LeftShoulder 8.797677 40.189993 29.778518
LeftArm 87.864269 23.371933 -42.317181
LeftForeArm 21.394690 -0.000000 55.412561
LeftHand 37.372138 -0.000000 12.431957
LeftHandThumb1 -26.253704 0.000000 33.147579
RightShoulder -6.887171 -48.039014 -16.040671
RightArm 60.120082 -3.305328 78.351150
RightForeArm 26.701626 -0.000000 85.192863
RightHand 6.872919 -0.000000 12.261720
RightHandThumb1 -24.326973 -0.000000 -32.862282
LeftUpLeg -37.039522 10.513449 9.989124
LeftLeg 25.649756 -0.000000 -0.000000
LeftFoot -15.906374 17.844224 8.938435
LeftToeBase 2.150800 -0.000000 -0.000000
RightUpLeg -168.400304 -22.834219 30.187542
RightLeg 125.282971 -0.000000 -0.000000
RightFoot 36.574861 -24.859782 12.898026
RightToeBase 43.154720 -0.000000 -0.000000
1314
root 1.987169 32.730250 -5.036832 48.590571 -41.682257 -30.115775
Spine -36.198559 -12.660337 27.958356
Head 12.422108 -4.282590 7.273806
LeftShoulder 8.717316 40.380775 29.828702
LeftArm 87.952497 23.282995 -41.997082
LeftForeArm 22.572817 0.000000 55.451550
LeftHand 37.299599 -0.000000 11.630647
LeftHandThumb1 -26.253704 0.000000 33.147579
RightShoulder -6.856928 -47.938572 -16.138708
RightArm 60.080480 -3.457489 78.432825
RightForeArm 26.514536 -0.000000 85.277272
RightHand 6.850645 -0.000000 12.178249
RightHandThumb1 -24.326973 -0.000000 -32.862282
LeftUpLeg -36.950786 10.954007 10.003221
LeftLeg 25.782636 -0.000000 -0.000000
LeftFoot -16.176244 17.486267 8.365701
LeftToeBase 2.177583 -0.000000 -0.000000
RightUpLeg -168.463798 -22.660672 30.137164
RightLeg 125.278036 -0.000000 -0.000000
RightFoot 36.525290 -25.114103 13.123094
RightToeBase 43.338039 -0.000000 -0.000000
1315
root 1.962685 32.737667 -5.035140 48.638455 -41.743703 -30.313042
Spine -36.202058 -12.707673 28.003651
Head 12.725073 -4.445497 7.440634
LeftShoulder 8.667777 40.458514 29.877888
LeftArm 88.074751 23.224010 -41.599750
LeftForeArm 22.189028 -0.000000 55.223459
LeftHand 38.874273 -0.000000 8.759860
LeftHandThumb1 -26.253704 0.000000 33.147579
RightShoulder -6.911956 -47.910999 -16.154736
RightArm 60.135485 -3.566372 78.409308
RightForeArm 26.406633 -0.000000 85.385551
RightHand 6.780328 -0.000000 12.059501
RightHandThumb1 -24.326973 -0.000000 -32.862282
LeftUpLeg -36.861880 11.390647 10.011037
LeftLeg 25.907283 -0.000000 -0.000000
LeftFoot -16.442190 17.114394 7.775609
LeftToeBase 2.233672 -0.000000 -0.000000
RightUpLeg -168.548123 -22.546684 30.105728
RightLeg 125.288896 -0.000000 -0.000000
RightFoot 36.561949 -25.196475 13.258895
RightToeBase 43.395947 -0.000000 -0.000000
1316
root 1.938355 32.746391 -5.037404 48.713985 -41.801501 -30.526577
Spine -36.204593 -12.725755 28.040128
Head 12.981091 -4.619004 7.584872
LeftShoulder 8.660536 40.455900 29.932270
LeftArm 88.276638 23.225972 -40.904047
LeftForeArm 20.362919 0.000000 54.979058
LeftHand 39.581252 -0.000000 7.255529
LeftHandThumb1 -26.253704 0.000000 33.147579
RightShoulder -6.979696 -47.890271 -16.146755
RightArm 60.155540 -3.705207 78.462654
RightForeArm 26.142725 0.000000 85.507918
RightHand 6.831594 -0.000000 12.069710
RightHandThumb1 -24.326973 -0.000000 -32.862282
LeftUpLeg -36.769732 11.748032 10.076280
LeftLeg 26.008339 -0.000000 -0.000000
LeftFoot -16.736318 16.864648 7.125738
LeftToeBase 2.329368 -0.000000 -0.000000
RightUpLeg -168.636187 -22.413553 30.083669
RightLeg 125.328007 -0.000000 -0.000000
RightFoot 36.616797 -25.113491 13.279744
RightToeBase 43.212318 -0.000000 -0.000000
1317
root 1.912931 32.756364 -5.038281 48.795105 -41.815737 -30.704685
Spine -36.272565 -12.793425 28.122680
Head 13.263884 -4.763127 7.747191
LeftShoulder 8.653817 40.448753 29.975241
LeftArm 88.451345 23.217956 -40.339019
LeftForeArm 19.505148 -0.000000 54.728305
LeftHand 40.087023 -0.000000 6.138820
LeftHandThumb1 -26.253704 0.000000 33.147579
RightShoulder -7.013936 -47.866464 -16.158444
RightArm 60.189434 -3.796459 78.533191
RightForeArm 26.103707 -0.000000 85.607592
RightHand 6.796706 -0.000000 12.037266
RightHandThumb1 -24.326973 -0.000000 -32.862282
LeftUpLeg -36.737311 12.111736 10.119465
LeftLeg 26.131508 -0.000000 -0.000000
LeftFoot -16.972324 16.502662 6.575795
LeftToeBase 2.615577 -0.000000 -0.000000
RightUpLeg -168.781657 -22.313985 30.118886
RightLeg 125.342996 -0.000000 -0.000000
RightFoot 36.578712 -25.148003 13.381198
RightToeBase 43.361050 -0.000000 -0.000000
1318
root 1.886787 32.768745 -5.040486 48.899694 -41.761845 -30.865397
Spine -36.398307 -12.873582 28.249582
Head 13.523704 -4.925535 7.897276
LeftShoulder 8.710709 40.471384 30.047262
LeftArm 88.601692 23.169126 -39.895940
LeftForeArm 19.075090 -0.000000 54.535424
LeftHand 39.906772 -0.000000 5.996317
LeftHandThumb1 -26.253704 0.000000 33.147579
RightShoulder -7.058731 -47.889146 -16.151931
RightArm 60.231561 -3.872535 78.568998
RightForeArm 26.048565 -0.000000 85.739941
RightHand 6.577689 -0.000000 12.353024
RightHandThumb1 -24.326973 -0.000000 -32.862282
LeftUpLeg -36.736784 12.452740 10.186715
LeftLeg 26.173718 -0.000000 -0.000000
LeftFoot -17.156041 16.153879 6.103715
LeftToeBase 2.789718 -0.000000 -0.000000
RightUpLeg -168.990600 -22.209062 30.228833
RightLeg 125.361900 -0.000000 -0.000000
RightFoot 36.731638 -25.012039 13.112349
RightToeBase 43.171638 -0.000000 -0.000000
1319
root 1.867452 32.778268 -5.044484 48.989224 -41.702539 -31.014326
Spine -36.483479 -12.945594 28.355996
Head 13.710993 -5.076508 8.072850
LeftShoulder 8.851957 40.463845 30.193483
LeftArm 88.636395 23.109553 -39.738518
LeftForeArm 18.861116 -0.000000 54.408567
LeftHand 40.275509 -0.000000 4.894937
LeftHandThumb1 -26.253704 0.000000 33.147579
RightShoulder -7.201275 -47.870392 -16.079997
RightArm 60.307478 -3.991423 78.624604
RightForeArm 25.799841 -0.000000 85.795485
RightHand 6.751374 0.000000 12.089180
RightHandThumb1 -24.326973 -0.000000 -32.862282
LeftUpLeg -36.743976 12.657945 10.286766
LeftLeg 26.244297 -0.000000 -0.000000
LeftFoot -17.293018 15.986059 5.768903
LeftToeBase 3.007532 -0.000000 -0.000000
RightUpLeg -169.190552 -22.158585 30.331550
RightLeg 125.335253 -0.000000 -0.000000
RightFoot 36.654573 -25.230290 13.331969
RightToeBase 43.284417 -0.000000 -0.000000
1320
root 1.849114 32.786700 -5.049831 49.077477 -41.611755 -31.195150
Spine -36.530171 -13.027136 28.499728
Head 13.856993 -5.208498 8.253609
LeftShoulder 8.980125 40.482008 30.297998
LeftArm 88.664304 23.000629 -39.655031
LeftForeArm 18.981434 0.000000 54.357944
LeftHand 40.376198 0.000000 4.070386
LeftHandThumb1 -26.253704 0.000000 33.147579
RightShoulder -7.274413 -47.856720 -16.062724
RightArm 60.365545 -4.069100 78.631728
RightForeArm 25.692578 -0.000000 85.896751
RightHand 6.814787 -0.000000 11.947137
RightHandThumb1 -24.326973 -0.000000 -32.862282
LeftUpLeg -36.729985 12.809394 10.451748
LeftLeg 26.310333 -0.000000 -0.000000
LeftFoot -17.404452 15.852589 5.442096
LeftToeBase 2.910857 -0.000000 -0.000000
RightUpLeg -169.365392 -22.129148 30.458601
RightLeg 125.332027 -0.000000 -0.000000
RightFoot 36.652962 -25.262405 13.342559
RightToeBase 43.110524 -0.000000 -0.000000
1321
root 1.834044 32.793723 -5.054823 49.123521 -41.545544 -31.327000
Spine -36.557819 -13.135764 28.602561
Head 13.963644 -5.360155 8.447439
LeftShoulder 9.067283 40.493824 30.351062
LeftArm 88.659924 22.839668 -39.701283
LeftForeArm 20.051318 -0.000000 54.325356
LeftHand 40.883475 0.000000 2.704151
LeftHandThumb1 -26.253704 0.000000 33.147579
RightShoulder -7.349997 -47.826346 -16.028086
RightArm 60.399250 -4.143113 78.642799
RightForeArm 25.667217 -0.000000 86.032928
RightHand 6.700197 -0.000000 11.990659
RightHandThumb1 -24.326973 -0.000000 -32.862282
LeftUpLeg -36.703804 12.954701 10.560752
LeftLeg 26.358143 -0.000000 -0.000000
LeftFoot -17.496761 15.727756 5.256334
LeftToeBase 2.798214 -0.000000 -0.000000
RightUpLeg -169.524262 -22.152565 30.528208
RightLeg 125.258827 -0.000000 -0.000000
RightFoot 36.705021 -25.341037 13.379381
RightToeBase 43.012520 -0.000000 -0.000000
1322
root 1.818152 32.801422 -5.062166 49.171285 -41.456859 -31.439354
Spine -36.604099 -13.273956 28.718115
Head 14.044488 -5.499595 8.644800
LeftShoulder 9.163092 40.506846 30.416721
LeftArm 88.686273 22.733289 -39.631722
LeftForeArm 19.476664 -0.000000 54.357712
LeftHand 41.570242 0.000000 0.855724
LeftHandThumb1 -26.253704 0.000000 33.147579
RightShoulder -7.420306 -47.757198 -15.996821
RightArm 60.425402 -4.230280 78.654697
RightForeArm 25.544526 -0.000000 86.116242
RightHand 6.795216 -0.000000 11.952999
RightHandThumb1 -24.326973 -0.000000 -32.862282
LeftUpLeg -36.700157 13.058024 10.691426
LeftLeg 26.408075 -0.000000 -0.000000
LeftFoot -17.588209 15.572200 5.028900
LeftToeBase 2.509448 -0.000000 -0.000000
RightUpLeg -169.695054 -22.223858 30.593629
RightLeg 125.171775 -0.000000 -0.000000
RightFoot 36.640938 -25.478066 13.557091
RightToeBase 43.259670 -0.000000 -0.000000
